<svg xmlns="http://www.w3.org/2000/svg" xmlns:xlink="http://www.w3.org/1999/xlink" viewBox="0 0 48 48" width="48px" height="48px"><path fill="#bcbcbc" d="M12.797,35.148c-0.361,0.865-0.616,1.828-0.379,2.735c0.331,1.265,1.631,2.147,2.938,2.169 c1.307,0.022,2.557-0.718,3.337-1.767s1.127-2.373,1.179-3.679c0.048-1.195-0.18-2.482-1.015-3.337 C16.36,28.712,13.613,33.194,12.797,35.148z"/><path fill="#010101" d="M15.411,40.552c-0.021,0-0.042,0-0.063,0c-1.574-0.026-3.042-1.119-3.414-2.542 c-0.229-0.878-0.102-1.849,0.401-3.054c0.637-1.525,2.388-4.515,4.454-4.91c0.602-0.115,1.515-0.058,2.426,0.874 c1.036,1.061,1.201,2.601,1.157,3.707c-0.061,1.546-0.503,2.915-1.277,3.957C18.189,39.801,16.782,40.552,15.411,40.552z M17.252,31c-0.091,0-0.182,0.009-0.275,0.026c-1.518,0.291-3.086,2.8-3.719,4.314l0,0c-0.415,0.993-0.528,1.76-0.356,2.416 c0.263,1.004,1.322,1.776,2.463,1.795c1.064,0.044,2.197-0.582,2.927-1.565c0.826-1.112,1.043-2.462,1.081-3.4 c0.036-0.909-0.086-2.162-0.874-2.968C18.095,31.204,17.685,31,17.252,31z M12.797,35.148h0.01H12.797z"/><path fill="#bcbcbc" d="M34.952,34.889c0.422,0.796,0.85,1.611,0.99,2.501c0.14,0.89-0.059,1.885-0.728,2.488 c-0.691,0.623-1.758,0.697-2.627,0.366c-0.869-0.332-1.565-1.008-2.128-1.749c-0.82-1.079-1.412-2.33-1.726-3.647 c-0.218-0.915-0.301-1.888-0.032-2.789c0.269-0.901,0.936-1.72,1.838-1.988C32.986,29.345,34.117,33.313,34.952,34.889z"/><path fill="#010101" d="M33.637,40.941c-0.406,0-0.824-0.075-1.228-0.229c-0.846-0.323-1.614-0.949-2.348-1.914 c-0.858-1.13-1.486-2.456-1.814-3.834c-0.279-1.17-0.288-2.167-0.025-3.048c0.338-1.137,1.172-2.027,2.175-2.324 c2.419-0.714,3.683,2.14,4.518,4.03c0.174,0.394,0.332,0.752,0.48,1.033v0c0.416,0.785,0.888,1.676,1.042,2.658 c0.185,1.173-0.147,2.271-0.888,2.938C35.046,40.704,34.36,40.941,33.637,40.941z M31.103,30.487c-0.136,0-0.276,0.021-0.422,0.064 c-0.683,0.202-1.258,0.834-1.501,1.65c-0.21,0.708-0.198,1.536,0.04,2.531c0.296,1.245,0.863,2.441,1.638,3.461 c0.618,0.812,1.242,1.331,1.909,1.584c0.762,0.292,1.612,0.183,2.114-0.27c0.575-0.518,0.671-1.393,0.569-2.039 c-0.128-0.817-0.54-1.594-0.938-2.345l0,0c-0.158-0.298-0.327-0.679-0.511-1.097C33.173,32.156,32.326,30.487,31.103,30.487z"/><path fill="#bcbcbc" d="M15.613,39.771c-0.378-3.286,1.027-6.745,3.575-8.69s6.14-2.27,8.946-0.77s4.676,4.777,4.57,8.085 c-0.037,1.145-0.329,2.349-1.12,3.137c-0.931,0.926-2.319,1.078-3.599,1.14c-2.876,0.139-5.751,0.057-8.627-0.028 c-0.74-0.022-1.667,0.134-2.345-0.252C16.123,41.888,15.726,40.759,15.613,39.771z"/><path fill="#010101" d="M24.624,43.249c-1.782,0-3.55-0.052-5.282-0.103c-0.171-0.005-0.353,0-0.54,0.005 c-0.657,0.019-1.403,0.038-2.038-0.323c-0.886-0.504-1.487-1.598-1.648-3l0,0c-0.403-3.5,1.076-7.089,3.768-9.144 c2.711-2.071,6.523-2.397,9.485-0.813c3.004,1.606,4.946,5.039,4.834,8.542c-0.033,1.043-0.28,2.492-1.267,3.475 c-1.066,1.061-2.586,1.22-3.928,1.285C26.879,43.228,25.749,43.249,24.624,43.249z M19.195,42.144c0.06,0,0.119,0.001,0.177,0.002 c2.805,0.083,5.708,0.168,8.589,0.028c1.155-0.056,2.456-0.185,3.271-0.995c0.754-0.751,0.945-1.936,0.973-2.798 c0.099-3.083-1.672-6.219-4.307-7.628c-2.622-1.403-6-1.111-8.407,0.726c-2.38,1.816-3.739,5.126-3.381,8.235 c0.059,0.512,0.289,1.755,1.149,2.245c0.392,0.222,0.964,0.208,1.517,0.192C18.918,42.147,19.059,42.144,19.195,42.144z"/><path fill="#bcbcbc" d="M24.578,39.654c0.522-1.446,1.771-2.64,3.273-2.968c1.502-0.328,3.2,0.289,4.04,1.577 c0.572,0.879,0.724,1.961,0.796,3.007c0.069,1.009,0.009,2.175-0.782,2.805c-0.614,0.489-1.473,0.488-2.258,0.464 c-0.927-0.029-1.854-0.057-2.781-0.086c-0.593-0.018-1.475,0.139-1.934-0.321C23.975,43.171,24.17,40.783,24.578,39.654z"/><path fill="#010101" d="M30.098,45.047c-0.167,0-0.324-0.005-0.467-0.009l-2.7-0.083c-0.2-0.007-0.331-0.002-0.469,0.002 c-0.61,0.019-1.372,0.042-1.885-0.473c-1.18-1.185-0.889-3.841-0.47-5l0,0c0.593-1.644,2.021-2.934,3.636-3.287 c1.75-0.383,3.629,0.354,4.565,1.792c0.644,0.988,0.804,2.195,0.876,3.246c0.068,1.001,0.043,2.425-0.97,3.23 C31.585,44.968,30.766,45.047,30.098,45.047z M26.76,43.95c0.042,0,0.082,0,0.121,0.001l2.781,0.086 c0.753,0.025,1.468,0.014,1.931-0.354c0.491-0.391,0.68-1.146,0.595-2.38c-0.066-0.969-0.198-1.974-0.716-2.768 c-0.703-1.08-2.184-1.651-3.514-1.361c-1.288,0.282-2.43,1.322-2.91,2.65l0,0c-0.392,1.085-0.497,3.217,0.238,3.954 c0.207,0.207,0.728,0.19,1.146,0.179C26.546,43.953,26.656,43.95,26.76,43.95z M24.578,39.654h0.01H24.578z"/><path fill="#bcbcbc" d="M15.808,42.941c-0.42-0.851-0.423-1.87-0.162-2.784c0.383-1.341,1.346-2.521,2.614-3.075 c1.268-0.554,2.822-0.439,3.949,0.368c1.369,0.98,1.943,2.772,2.017,4.464c0.024,0.542-0.004,1.117-0.296,1.573 c-0.409,0.64-1.228,0.874-1.981,0.917C19.93,44.518,16.931,45.215,15.808,42.941z"/><path fill="#010101" d="M19.22,45.091c-1.524,0-3.076-0.34-3.859-1.928l0,0c-0.446-0.904-0.516-2.02-0.195-3.142 c0.435-1.524,1.517-2.794,2.895-3.396c1.454-0.635,3.197-0.471,4.44,0.419c1.321,0.946,2.132,2.713,2.226,4.849 c0.024,0.558,0.003,1.274-0.374,1.864c-0.555,0.869-1.598,1.103-2.374,1.146c-0.297,0.017-0.616,0.046-0.947,0.077 C20.469,45.033,19.847,45.091,19.22,45.091z M19.92,37.239c-0.495,0-0.996,0.1-1.459,0.302c-1.107,0.484-1.979,1.513-2.333,2.754 c-0.252,0.883-0.207,1.745,0.129,2.425l0,0c0.801,1.624,2.86,1.434,4.682,1.265c0.343-0.032,0.674-0.062,0.983-0.08 c0.445-0.025,1.243-0.148,1.587-0.687c0.226-0.353,0.237-0.846,0.218-1.282c-0.08-1.827-0.739-3.313-1.809-4.079 C21.348,37.449,20.639,37.239,19.92,37.239z"/><path fill="#8a4581" d="M20.558,5.536c0.275-1.187,0.957-2.315,2.002-2.942s2.468-0.669,3.448,0.055 c0.646,0.477,1.048,1.227,1.254,2.003c0.207,0.776,0.236,1.586,0.265,2.389c0.028,0.785-0.002,1.7-0.631,2.171 c-0.387,0.29-0.902,0.326-1.385,0.343c-0.86,0.031-1.72,0.038-2.58,0.021c-0.571-0.011-1.596,0.152-2.075-0.238 C20.029,8.664,20.357,6.406,20.558,5.536z"/><path fill="#010101" d="M21.987,10.102c-0.518,0-1.061-0.062-1.446-0.375c-1.175-0.958-0.598-3.752-0.47-4.303l0,0 c0.329-1.417,1.142-2.604,2.232-3.257c1.263-0.758,2.91-0.726,4.002,0.082c0.858,0.636,1.257,1.589,1.44,2.277 c0.222,0.833,0.252,1.68,0.281,2.499c0.022,0.622,0.068,1.916-0.831,2.589c-0.496,0.372-1.095,0.423-1.667,0.443 c-0.868,0.031-1.746,0.038-2.607,0.022c-0.121-0.003-0.262,0.004-0.415,0.01C22.341,10.094,22.166,10.102,21.987,10.102z M21.045,5.649c-0.3,1.294-0.336,2.924,0.127,3.302c0.223,0.182,0.866,0.155,1.292,0.137c0.176-0.008,0.34-0.017,0.477-0.011 c0.845,0.017,1.703,0.009,2.552-0.021c0.431-0.016,0.838-0.045,1.103-0.244c0.422-0.317,0.457-1.03,0.431-1.754 C27,6.295,26.972,5.506,26.779,4.781c-0.142-0.533-0.442-1.266-1.068-1.729c-0.776-0.573-1.966-0.585-2.893-0.028 C21.958,3.539,21.313,4.496,21.045,5.649L21.045,5.649z"/><path fill="#4b7bb2" d="M17.41,11.12H17.4c-2.56,1.18-5.7-1.06-5.58-3.82c0.03-0.71,0.3-1.4,0.73-1.97 c0.63-0.86,1.62-1.45,2.69-1.47c1.02-0.03,2.02,0.43,2.71,1.16c0.7,0.74,1.1,1.73,1.16,2.74C19.2,9.09,18.62,10.55,17.41,11.12z"/><path fill="#010101" d="M15.921,11.941c-0.866,0-1.748-0.27-2.535-0.798c-1.338-0.898-2.13-2.379-2.065-3.865 c0.033-0.785,0.328-1.583,0.83-2.25c0.748-1.021,1.901-1.647,3.081-1.669c1.095-0.028,2.272,0.459,3.083,1.316 c0.767,0.811,1.227,1.895,1.295,3.054c0.095,1.4-0.482,3.134-1.985,3.842c-0.022,0.011-0.045,0.02-0.068,0.026 C17.037,11.828,16.482,11.941,15.921,11.941z M17.41,11.12h0.01H17.41z M15.333,4.358c-0.026,0-0.052,0-0.078,0.001 c-0.875,0.016-1.733,0.489-2.302,1.266c-0.385,0.511-0.609,1.111-0.634,1.696c-0.049,1.14,0.573,2.286,1.624,2.992 c1.023,0.686,2.238,0.819,3.248,0.353c0.018-0.008,0.035-0.015,0.053-0.021c1.037-0.521,1.437-1.836,1.368-2.852 c-0.055-0.929-0.418-1.79-1.024-2.43C16.988,4.73,16.151,4.358,15.333,4.358z"/><path fill="#4b7bb2" d="M36.18,9.05c-0.61,1.29-1.73,2.42-3.14,2.68c-0.66,0.13-1.29,0.02-1.85-0.26 c-0.53-0.26-1-0.68-1.34-1.2c-0.72-1.13-0.23-2.71,0.32-3.84c0.51-1.03,1.35-1.93,2.42-2.32c0.91-0.33,1.98-0.25,2.78,0.25 c0.15,0.1,0.29,0.21,0.42,0.34C36.91,5.78,36.84,7.64,36.18,9.05z"/><path fill="#010101" d="M32.493,12.284c-0.521,0-1.04-0.124-1.526-0.367c-0.612-0.3-1.144-0.776-1.535-1.374 c-0.854-1.338-0.313-3.094,0.289-4.332c0.619-1.25,1.577-2.163,2.698-2.571c1.071-0.389,2.303-0.275,3.217,0.296 c0.19,0.126,0.355,0.257,0.509,0.411c1.326,1.277,1.202,3.39,0.489,4.915c0,0,0,0.001,0,0.002c-0.75,1.586-2.06,2.692-3.501,2.958 C32.919,12.263,32.706,12.284,32.493,12.284z M33.738,4.409c-0.328,0-0.662,0.056-0.978,0.171 c-0.865,0.315-1.646,1.071-2.142,2.072c-0.4,0.823-0.979,2.356-0.346,3.35c0.285,0.436,0.69,0.8,1.138,1.02 c0.497,0.248,1.012,0.322,1.533,0.218c1.132-0.209,2.171-1.107,2.785-2.403c0.543-1.163,0.686-2.84-0.285-3.776 c-0.113-0.113-0.228-0.203-0.351-0.284C34.706,4.534,34.228,4.409,33.738,4.409z M36.18,9.05h0.01H36.18z"/><path fill="#1e4384" d="M17.41,11.12H17.4c-2.56,1.18-5.7-1.06-5.58-3.82c0.03-0.71,0.3-1.4,0.73-1.97 c0.74,0.02,1.46,0.34,2.08,0.76c0.89,0.61,1.65,1.42,2.19,2.36C17.28,9.25,17.56,10.25,17.41,11.12z"/><path fill="#010101" d="M15.921,11.941c-0.866,0-1.748-0.27-2.535-0.798c-1.338-0.898-2.13-2.379-2.065-3.865 c0.033-0.785,0.328-1.583,0.83-2.25c0.097-0.129,0.228-0.208,0.413-0.199c0.759,0.021,1.548,0.305,2.347,0.846 c0.965,0.662,1.775,1.535,2.343,2.525c0.571,0.991,0.808,2.086,0.649,3.004c-0.033,0.19-0.171,0.34-0.348,0.394 C17.037,11.828,16.482,11.941,15.921,11.941z M17.41,11.12h0.01H17.41z M12.796,5.852c-0.288,0.455-0.456,0.968-0.477,1.47 c-0.049,1.14,0.573,2.286,1.624,2.992c0.942,0.632,2.045,0.795,3.004,0.452c0.033-0.633-0.168-1.384-0.561-2.065 c-0.495-0.862-1.2-1.622-2.04-2.197C13.808,6.137,13.287,5.918,12.796,5.852z"/><g><path fill="#1e4384" d="M36.18,9.05c-0.61,1.29-1.73,2.42-3.14,2.68c-0.66,0.13-1.29,0.02-1.85-0.26 C31,10.65,31.1,9.69,31.38,8.92c0.5-1.38,1.52-2.51,2.59-3.51c0.42-0.4,0.88-0.8,1.4-1.05c0.15,0.1,0.29,0.21,0.42,0.34 C36.91,5.78,36.84,7.64,36.18,9.05z"/><path fill="#010101" d="M32.493,12.284c-0.521,0-1.04-0.124-1.526-0.367c-0.133-0.067-0.23-0.189-0.264-0.334 c-0.2-0.865-0.123-1.925,0.208-2.833c0.565-1.559,1.75-2.798,2.718-3.704c0.42-0.4,0.933-0.851,1.525-1.136 c0.159-0.077,0.346-0.064,0.495,0.035c0.177,0.119,0.343,0.249,0.496,0.403c1.326,1.277,1.202,3.39,0.489,4.915 c0,0,0,0.001,0,0.002c-0.75,1.586-2.06,2.692-3.501,2.958C32.919,12.263,32.706,12.284,32.493,12.284z M31.632,11.12 c0.427,0.166,0.867,0.207,1.312,0.119c1.132-0.209,2.171-1.107,2.785-2.403c0.543-1.163,0.686-2.84-0.285-3.776 c-0.038-0.039-0.077-0.074-0.116-0.107c-0.364,0.222-0.7,0.522-1.013,0.82c-0.891,0.832-1.972,1.958-2.464,3.318 C31.613,9.742,31.536,10.483,31.632,11.12z M36.18,9.05h0.01H36.18z"/></g><g><defs><rect id="aWjm0RYjTtyoROX2BPu93a" width="48" height="48" x="120.072" y="102.649"/></defs><clipPath id="aWjm0RYjTtyoROX2BPu93b"><use overflow="visible" xlink:href="#aWjm0RYjTtyoROX2BPu93a"/></clipPath></g><g><path fill="#4b7bb2" d="M36.14,21.42v0.01c-0.03,0.15-0.06,0.3-0.1,0.45c-0.39,1.59-0.97,3.14-1.3,4.74 c-0.33,1.61-0.41,3.32,0.18,4.85c-7.25,0.74-14.59,1.49-21.8,0.47c0.01-1.15,0.37-2.23,0.35-3.39c-0.02-1.27-0.31-2.52-0.66-3.73 c-0.32-1.06-0.69-2.11-0.98-3.18c-0.27-0.99-0.48-2-0.52-3.03c-0.03-0.8,0.05-1.58,0.22-2.35c0.67-2.95,2.73-5.59,5.37-7.14 c3.33-1.95,7.42-2.31,11.21-1.58c1.55,0.3,3.1,0.78,4.4,1.67c1.93,1.32,3.2,3.46,3.73,5.73c0.07,0.29,0.12,0.58,0.16,0.87 C36.69,17.67,36.55,19.58,36.14,21.42z"/><path fill="#010101" d="M20.713,32.935c-2.564,0-5.125-0.141-7.663-0.5c-0.249-0.035-0.432-0.249-0.43-0.5 c0.005-0.588,0.095-1.15,0.181-1.695c0.092-0.577,0.178-1.122,0.168-1.682c-0.02-1.292-0.334-2.544-0.64-3.6 c-0.12-0.397-0.249-0.798-0.377-1.2c-0.212-0.66-0.423-1.32-0.604-1.988c-0.33-1.21-0.501-2.209-0.537-3.142 c-0.03-0.813,0.047-1.646,0.231-2.478c0.685-3.016,2.78-5.805,5.605-7.463c3.204-1.876,7.307-2.459,11.558-1.64 c1.935,0.375,3.392,0.93,4.588,1.749c1.911,1.307,3.345,3.504,3.935,6.029c0.073,0.303,0.126,0.609,0.168,0.916 c0.278,1.78,0.19,3.721-0.261,5.761c-0.002,0.018-0.005,0.034-0.008,0.047c-0.031,0.153-0.062,0.307-0.103,0.459 c-0.168,0.685-0.374,1.373-0.581,2.06c-0.26,0.868-0.53,1.765-0.712,2.652c-0.375,1.829-0.324,3.323,0.156,4.569 c0.056,0.145,0.042,0.309-0.04,0.441s-0.22,0.22-0.375,0.236C30.281,32.446,25.49,32.935,20.713,32.935z M13.641,31.506 c6.802,0.891,13.81,0.222,20.61-0.471c-0.357-1.292-0.357-2.776,0-4.516c0.192-0.931,0.468-1.85,0.734-2.738 c0.201-0.671,0.403-1.342,0.569-2.021c0.038-0.143,0.065-0.276,0.092-0.409c0-0.037-0.002-0.004,0.006-0.041 c0.429-1.927,0.515-3.752,0.254-5.424c-0.039-0.283-0.086-0.557-0.152-0.83c-0.534-2.288-1.819-4.267-3.526-5.435 c-1.079-0.739-2.417-1.245-4.212-1.592c-4.01-0.771-7.868-0.232-10.863,1.521c-2.59,1.521-4.51,4.07-5.134,6.819 c-0.167,0.756-0.236,1.483-0.208,2.221c0.033,0.854,0.193,1.781,0.503,2.917c0.177,0.654,0.385,1.299,0.592,1.944 c0.131,0.407,0.261,0.814,0.384,1.222c0.326,1.125,0.66,2.458,0.681,3.867c0.011,0.647-0.086,1.262-0.181,1.856 C13.729,30.777,13.67,31.142,13.641,31.506z"/></g><path fill="#010101" d="M23.262,29.285c-1.274,0-2.548-0.17-3.775-0.513c-0.266-0.074-0.421-0.35-0.347-0.616	c0.074-0.267,0.353-0.423,0.616-0.347c2.629,0.734,5.489,0.617,8.051-0.33c0.259-0.094,0.547,0.038,0.643,0.296	c0.096,0.259-0.037,0.547-0.296,0.643C26.591,28.994,24.926,29.285,23.262,29.285z"/><g><path fill="#ed488b" d="M18.771,13.138c-1.488,0.955-2.176,2.993-1.57,4.655c0.524,1.437,1.815,2.429,3.044,3.339 c1.182,0.876,2.365,1.752,3.547,2.629c0.269,0.199,0.553,0.405,0.885,0.45c0.443,0.06,0.865-0.178,1.249-0.408 c1.799-1.076,3.654-2.204,4.836-3.935c1.182-1.731,1.491-4.246,0.143-5.85c-0.869-1.035-2.282-1.512-3.633-1.46 c-0.83,0.032-1.642,0.247-2.407,0.563c-0.988,0.408-1.067,0.454-1.984-0.052C21.624,12.374,19.996,12.352,18.771,13.138z"/><path fill="#010101" d="M24.816,24.719c-0.067,0-0.136-0.004-0.205-0.014c-0.469-0.063-0.843-0.341-1.117-0.544 l-3.547-2.628c-1.168-0.866-2.623-1.943-3.216-3.57c-0.681-1.868,0.097-4.173,1.77-5.247l0,0c1.344-0.86,3.157-0.896,4.623-0.086 c0.694,0.383,0.695,0.381,1.508,0.045c0.931-0.384,1.798-0.586,2.621-0.618c1.628-0.062,3.122,0.551,4.035,1.638 c1.556,1.852,1.121,4.649-0.113,6.455c-1.266,1.853-3.246,3.037-4.992,4.082C25.851,24.43,25.368,24.719,24.816,24.719z M19.041,13.559c-1.295,0.832-1.897,2.616-1.37,4.062c0.49,1.345,1.811,2.323,2.872,3.109l3.547,2.628 c0.207,0.154,0.441,0.328,0.654,0.356c0.271,0.039,0.579-0.134,0.926-0.341c1.659-0.992,3.539-2.116,4.68-3.788 c1.021-1.495,1.408-3.777,0.173-5.247c-0.716-0.853-1.91-1.338-3.231-1.282c-0.705,0.027-1.457,0.204-2.235,0.525 c-1.128,0.466-1.378,0.497-2.417-0.076C21.492,12.873,20.08,12.893,19.041,13.559L19.041,13.559z"/></g><path fill="#010101" d="M22.78,20.371c-0.194,0-0.378-0.114-0.459-0.303l-1.034-2.417c-0.109-0.254,0.009-0.548,0.263-0.656	c0.253-0.11,0.547,0.009,0.656,0.263l1.034,2.417c0.109,0.254-0.009,0.548-0.263,0.656C22.912,20.358,22.846,20.371,22.78,20.371z"/><path fill="#010101" d="M26.006,20.163c-0.046,0-0.093-0.006-0.14-0.02c-0.265-0.077-0.417-0.354-0.34-0.62l0.664-2.279	c0.077-0.265,0.354-0.419,0.62-0.34c0.265,0.077,0.417,0.354,0.34,0.62l-0.664,2.279C26.422,20.021,26.223,20.163,26.006,20.163z"/><g><path fill="#d6e5e5" d="M12.25,21.23c-0.12,0.15-0.26,0.29-0.42,0.41c-0.27-0.99-0.48-2-0.52-3.03 c-0.03-0.8,0.05-1.58,0.22-2.35c0.66,0.56,1.13,1.43,1.28,2.18C12.99,19.4,12.85,20.46,12.25,21.23z"/><path fill="#010101" d="M11.83,22.14c-0.055,0-0.109-0.009-0.162-0.027c-0.157-0.054-0.277-0.182-0.32-0.342 c-0.33-1.211-0.501-2.209-0.537-3.142c-0.03-0.813,0.047-1.646,0.231-2.478c0.038-0.171,0.163-0.31,0.329-0.366 c0.166-0.054,0.35-0.021,0.483,0.093c0.708,0.602,1.263,1.546,1.446,2.463c0.227,1.208-0.013,2.37-0.656,3.195 c-0.001,0.002-0.003,0.004-0.004,0.005c-0.153,0.191-0.325,0.359-0.51,0.498C12.042,22.106,11.937,22.14,11.83,22.14z M12.25,21.23 h0.01H12.25z M11.85,17.396c-0.042,0.4-0.055,0.796-0.041,1.195c0.024,0.606,0.111,1.249,0.271,1.977 c0.288-0.564,0.377-1.296,0.239-2.036C12.242,18.151,12.075,17.753,11.85,17.396z"/></g><g><path fill="#d6e5e5" d="M36.14,21.42c-0.16-0.16-0.3-0.35-0.41-0.54c-0.55-0.93-0.86-2.04-0.65-3.1 c0.13-0.64,0.64-1.57,1.32-1.97C36.69,17.67,36.55,19.58,36.14,21.42z"/><path fill="#010101" d="M36.14,21.92c-0.131,0-0.258-0.051-0.354-0.146c-0.182-0.182-0.352-0.404-0.489-0.643 c-0.671-1.134-0.923-2.36-0.708-3.448c0.159-0.785,0.745-1.826,1.557-2.304c0.143-0.083,0.318-0.091,0.467-0.021 c0.15,0.071,0.255,0.211,0.28,0.375c0.28,1.796,0.19,3.746-0.266,5.796c-0.04,0.178-0.173,0.32-0.349,0.371 C36.234,21.914,36.187,21.92,36.14,21.92z M36.019,16.876c-0.223,0.327-0.387,0.701-0.448,1.003 c-0.135,0.681-0.025,1.447,0.311,2.205C36.047,18.972,36.093,17.899,36.019,16.876z"/></g></svg>